<?xml version="1.0" standalone="no"?>
<!DOCTYPE svg PUBLIC "-//W3C//DTD SVG 1.1//EN" "http://www.w3.org/Graphics/SVG/1.1/DTD/svg11.dtd" >
<svg xmlns="http://www.w3.org/2000/svg">
<metadata>Generated by IcoMoon</metadata>
<defs>
<font id="icomoon" horiz-adv-x="1024">
<font-face units-per-em="1024" ascent="960" descent="-64" />
<missing-glyph horiz-adv-x="1024" />
<glyph unicode="&#x20;" horiz-adv-x="512" d="" />
<glyph unicode="&#xe900;" d="M566.857-64c-247.424 0-448 229.23-448 512s200.576 512 448 512c247.424 0 448-229.23 448-512s-200.576-512-448-512z" />
<glyph unicode="&#xe901;" d="M118.857 448c0 261.522 171.611 477.111 393.143 508.032-17.993 2.523-36.279 3.968-54.857 3.968-247.424 0-448-229.23-448-512s200.576-512 448-512c18.578 0 36.864 1.445 54.857 3.95-221.531 30.939-393.143 246.528-393.143 508.050z" />
<glyph unicode="&#xe902;" d="M118.839 429.696h-109.678c0.366-14.357 1.061-28.587 2.176-42.667h109.769c-1.134 14.059-1.902 28.288-2.267 42.667z" />
<glyph unicode="&#xe903;" d="M123.008 521.125h-109.641c-1.518-14.059-2.597-28.309-3.383-42.667h109.696c0.786 14.336 1.847 28.587 3.328 42.667z" />
<glyph unicode="&#xe904;" d="M128.896 338.267h-109.733c2.377-14.421 5.12-28.651 8.247-42.667h109.696c-3.127 13.995-5.851 28.224-8.21 42.667z" />
<glyph unicode="&#xe905;" d="M154.478 246.839h-109.787c4.663-14.549 9.801-28.736 15.305-42.667h109.751c-5.504 13.888-10.606 28.117-15.269 42.667z" />
<glyph unicode="&#xe906;" d="M142.135 612.553h-109.623c-3.547-14.016-6.875-28.203-9.655-42.667h109.842c2.761 14.4 5.87 28.672 9.435 42.667z" />
<glyph unicode="&#xe907;" d="M178.542 703.963h-109.733c-6.016-13.888-11.703-28.096-16.896-42.667h109.787c5.193 14.571 10.807 28.8 16.841 42.667z" />
<glyph unicode="&#xe908;" d="M253.166 813.678h-109.842c-10.405-13.568-20.297-27.797-29.659-42.667h109.806c9.362 14.869 19.273 29.099 29.696 42.667z" />
<glyph unicode="&#xe909;" d="M364.965 905.125h-109.97c-18.67-12.587-36.608-26.837-53.687-42.667h109.879c17.097 15.808 35.054 30.059 53.778 42.667z" />
<glyph unicode="&#xe90a;" d="M210.633 137.125h-109.751c8.485-14.784 17.445-29.013 26.935-42.667h109.842c-9.509 13.653-18.505 27.883-27.026 42.667z" />
<glyph unicode="&#xe90b;" d="M568.411 36.133h-1.554c-12.8 0-25.691 0.768-38.309 2.267-10.021 1.207-17.207 10.295-15.982 20.334 1.17 10.021 10.002 17.006 20.315 15.982 11.154-1.335 22.601-2.011 33.957-2.011 10.112 0 19.054-8.192 19.054-18.286 0.018-10.094-7.369-18.286-17.481-18.286zM674.761 55.826c-7.387 0-14.354 4.517-17.134 11.849-3.566 9.435 1.225 19.986 10.661 23.552 10.569 3.986 21.083 8.649 31.195 13.842 9.015 4.645 20.005 1.079 24.649-7.899 4.608-8.978 1.079-20.005-7.936-24.613-11.355-5.851-23.131-11.063-35.017-15.543-2.103-0.805-4.279-1.189-6.418-1.189zM427.264 69.797c-2.798 0-5.632 0.64-8.265 1.993-11.301 5.723-22.437 12.178-33.079 19.163-8.466 5.522-10.825 16.859-5.285 25.307 5.559 8.43 16.859 10.807 25.326 5.266 9.527-6.235 19.474-12.014 29.586-17.134 9.015-4.571 12.581-15.579 8.009-24.576-3.2-6.363-9.618-10.021-16.293-10.021zM795.008 134.857c-4.663 0-9.307 1.755-12.855 5.266-7.186 7.113-7.259 18.688-0.165 25.874 7.991 8.046 15.689 16.695 23.022 25.655 6.363 7.826 17.865 9.015 25.691 2.651 7.863-6.382 9.015-17.902 2.67-25.728-8.046-9.874-16.585-19.401-25.362-28.288-3.584-3.621-8.302-5.431-13.001-5.431zM315.557 160.585c-5.303 0-10.533 2.286-14.135 6.693-7.899 9.6-15.506 19.84-22.638 30.427-5.669 8.357-3.474 19.73 4.882 25.399 8.393 5.632 19.73 3.438 25.417-4.937 6.51-9.637 13.458-18.981 20.645-27.721 6.382-7.808 5.266-19.328-2.578-25.728-3.401-2.779-7.515-4.133-11.593-4.133zM875.337 254.555c-2.432 0-4.901 0.494-7.296 1.518-9.253 4.041-13.477 14.811-9.454 24.082 4.59 10.533 8.759 21.431 12.471 32.347 3.237 9.563 13.605 14.702 23.186 11.502 9.545-3.237 14.702-13.605 11.483-23.168-4.041-11.922-8.613-23.79-13.586-35.291-3.035-6.875-9.746-10.99-16.805-10.99zM245.851 286.848c-7.607 0-14.738 4.791-17.317 12.398-4.041 11.849-7.643 24.064-10.697 36.242-2.414 9.801 3.547 19.712 13.33 22.144 9.783 2.487 19.712-3.511 22.181-13.312 2.761-11.173 6.071-22.382 9.783-33.28 3.291-9.527-1.847-19.95-11.392-23.205-1.938-0.658-3.931-0.987-5.888-0.987zM909.915 394.697c-0.439 0-0.951 0.018-1.426 0.055-10.075 0.768-17.609 9.563-16.823 19.639 0.878 11.026 1.28 22.327 1.28 33.609 0 10.094 8.192 18.889 18.286 18.889 10.112 0 18.286-7.589 18.286-17.701v-1.189c0-12.233-0.457-24.485-1.39-36.425-0.75-9.6-8.741-16.878-18.213-16.878zM222.464 429.513c-10.094 0-18.286 7.973-18.286 18.066v0.421c0 12.343 0.512 24.869 1.481 37.23 0.768 10.075 9.765 17.463 19.657 16.786 10.057-0.786 17.591-9.582 16.805-19.657-0.896-11.41-1.371-22.967-1.371-34.359 0-10.094-8.174-18.487-18.286-18.487zM897.902 538.569c-8.174 0-15.653 5.522-17.737 13.824-2.779 11.173-6.126 22.363-9.874 33.262-3.273 9.563 1.847 19.968 11.355 23.241 9.673 3.31 19.968-1.81 23.259-11.355 4.059-11.867 7.68-24.064 10.734-36.224 2.45-9.801-3.493-19.73-13.312-22.181-1.481-0.402-2.962-0.567-4.425-0.567zM245.595 571.776c-1.938 0-3.931 0.329-5.851 0.987-9.582 3.237-14.702 13.623-11.447 23.186 4.041 11.959 8.649 23.826 13.678 35.273 4.078 9.253 14.775 13.495 24.064 9.399 9.253-4.059 13.477-14.848 9.435-24.082-4.608-10.496-8.832-21.376-12.562-32.329-2.578-7.625-9.691-12.434-17.317-12.434zM839.369 670.409c-5.87 0-11.648 2.816-15.159 8.027-6.455 9.509-13.403 18.816-20.681 27.666-6.437 7.79-5.285 19.328 2.505 25.746 7.808 6.4 19.31 5.285 25.746-2.505 7.991-9.728 15.616-19.968 22.711-30.391 5.65-8.375 3.438-19.73-4.919-25.399-3.127-2.121-6.674-3.145-10.203-3.145zM315.045 698.203c-4.078 0-8.155 1.335-11.575 4.114-7.826 6.4-8.96 17.902-2.578 25.728 8.027 9.838 16.585 19.346 25.399 28.233 7.15 7.186 18.706 7.205 25.856 0.11 7.205-7.113 7.241-18.688 0.11-25.856-7.991-8.064-15.726-16.695-23.058-25.618-3.602-4.425-8.869-6.711-14.153-6.711zM737.115 771.895c-3.438 0-6.894 0.969-9.984 2.962-9.563 6.254-19.529 11.995-29.623 17.061-8.997 4.535-12.617 15.561-8.064 24.576 4.535 9.015 15.488 12.654 24.539 8.082 11.282-5.669 22.437-12.105 33.152-19.090 8.466-5.504 10.862-16.841 5.339-25.307-3.547-5.358-9.399-8.283-15.36-8.283zM426.569 789.248c-6.674 0-13.074 3.639-16.329 9.966-4.571 9.015-1.024 20.023 7.973 24.613 11.429 5.815 23.223 11.045 35.054 15.451 9.545 3.566 20.005-1.262 23.552-10.715 3.529-9.454-1.28-19.986-10.715-23.534-10.551-3.95-21.083-8.576-31.232-13.769-2.67-1.353-5.504-2.011-8.302-2.011zM602.222 821.248c-0.677 0-1.39 0.037-2.103 0.128-11.026 1.28-22.199 1.92-33.262 1.92-10.094 0-18.67 8.192-18.67 18.286s7.79 18.286 17.883 18.286h0.786c12.453 0 25.070-0.731 37.449-2.176 10.039-1.152 17.225-10.24 16.055-20.261-1.061-9.326-8.96-16.183-18.139-16.183z" />
<glyph unicode="&#xe90c;" d="M769.499 640.768h-115.090c-11.045 0-18.231-7.168-18.231-18.231 0-11.081 7.186-18.231 18.231-18.231l31.799-0.055-103.899-158.592-103.333 158.647h31.872c11.045 0 18.231 7.15 18.231 18.231 0 11.063-7.186 18.231-18.231 18.231h-115.090c-11.081 0-18.231-7.168-18.231-18.231 0-11.081 7.168-18.231 18.231-18.231h36.334c2.341 0 4.864-0.549 7.241-4.517l114.048-178.56h-64.347c-11.081 0-18.231-7.15-18.231-18.231 0-11.045 7.15-18.231 18.231-18.231l75.648 0.073 0.055-18.487h-75.703c-11.081 0-18.231-7.131-18.231-18.213 0-11.045 7.15-18.231 18.231-18.231l75.648 0.055 0.055-73.307h-42.386c-11.081 0-18.213-7.15-18.213-18.231 0-11.045 7.15-18.231 18.213-18.231h121.161c11.045 0 18.231 7.168 18.231 18.231 0 11.081-7.186 18.231-18.231 18.231l-42.35-0.073-0.055 73.326h75.721c11.063 0 18.249 7.168 18.249 18.231 0 11.081-7.186 18.213-18.249 18.213l-75.666-0.055-0.055 18.469h75.721c11.063 0 18.249 7.168 18.249 18.231 0 11.081-7.186 18.231-18.249 18.231l-65.061 0.11 114.103 178.322c2.432 4.096 4.937 4.645 7.296 4.645h36.315c11.063 0 18.231 7.15 18.231 18.231 0.018 11.063-7.131 18.231-18.213 18.231z" />
<glyph unicode="&#xe90d;" d="M179.822 45.696c14.683-15.424 30.080-29.76 46.153-42.667h109.989c-16.183 12.949-31.707 27.179-46.482 42.667h-109.659z" />
<glyph unicode="&#xe90e;" glyph-name="casual-t-shirt" horiz-adv-x="1184" d="M591.996 896c51.519 0 96.018 25.9 112.004 64-30.498-6.619-69.372-10.614-112.004-10.614-42.628 0-81.502 3.995-111.996 10.614 15.978-38.097 60.473-64 111.996-64zM1182.525 802.19c-2.436 6.795-7.504 12.383-14.107 15.426l-225.733 103.6c-48.017 16.171-96.935 28.945-146.33 38.281-1.739 0.339-3.47 0.502-5.176 0.502-12.228 0-23.177-8.392-25.901-20.7-18.037-78.945-88.329-138.050-173.281-138.050-84.948 0-155.244 59.101-173.277 138.050-2.756 12.308-13.686 20.7-25.905 20.7-1.707 0-3.438-0.163-5.176-0.502-49.391-9.336-98.309-22.11-146.402-38.281l-225.653-103.596c-6.643-3.043-11.747-8.631-14.066-15.426-2.4-6.875-1.967-14.295 1.414-20.78l97.997-192.272c4.587-9.125 13.918-14.602 23.79-14.602 2.548 0 5.132 0.366 7.68 1.127l108.842 32.072v-645.141c0-14.65 12.023-26.599 26.799-26.599h647.928c14.736 0 26.723 11.953 26.723 26.599v645.133l108.918-32.072c2.548-0.761 5.128-1.127 7.672-1.127 9.852 0 19.147 5.477 23.798 14.602l98.033 192.272c3.301 6.488 3.774 13.909 1.414 20.784z" />
<glyph unicode="&#xe90f;" glyph-name="dress" horiz-adv-x="652" d="M485.203 541.091l50.070 151.197-61.534 123.891v143.822h-59.168v-138.556l-88.753-89.341-88.753 89.341v138.556h-59.168v-143.822l-61.534-123.891 50.070-151.197zM651.636 84.138c0 142.514-49.629 279.148-140 387.135h-371.636c-90.371-107.987-140-244.621-140-387.135v-24.273l651.636-123.865v148.138z" />
<glyph unicode="&#xe910;" glyph-name="eyeglasses" horiz-adv-x="2479" d="M2479.158 773.445h-238.776c-94.516 113.855-237.471 186.555-397.185 186.555-86.401 0-167.866-21.311-239.438-58.856h-728.359c-71.572 37.544-153.037 58.856-239.438 58.856-159.714 0-302.669-72.699-397.185-186.555h-238.776v-144.458h154.361c-21.468-56.297-33.252-117.297-33.252-180.987 0-282.315 230.965-512 514.852-512 270.496 0 492.949 208.524 513.32 472.424h0.416c0 49.3 40.326 89.384 89.882 89.384s89.882-40.083 89.882-89.384h0.416c20.371-263.9 242.824-472.424 513.32-472.424 283.887 0 514.852 229.685 514.852 512 0 63.69-11.784 124.689-33.252 180.987h154.361v144.458zM1212.632 616.728c-41.103 0-79.676-12.408-113.094-33.991-17.494 58.745-43.209 113.206-75.538 161.684h377.263c-32.328-48.478-58.043-102.94-75.538-161.684-33.418 21.583-71.991 33.991-113.094 33.991z" />
<glyph unicode="&#xe911;" glyph-name="necklace" horiz-adv-x="910" d="M795.97 135.111c12.527 2.135 25.018 4.935 37.482 7.973 47.727 66.724 72.798 143.549 76.77 219.583-42.313-37.386-89.986-67.441-142.222-86.5 14.969-38.192 24.57-89.583 27.97-141.056zM170.667 55.756c0.474-11.374 1.246-22.344 2.476-32.425 58.902-44.118 133.69-75.441 225.080-87.331-27.561 46.171-48.341 99.982-63.58 142.222-46.546-15.912-102.756-24.564-163.976-22.466zM61.802 143.507c9.805-2.972 19.705-6.352 29.292-8.396 2.732 52.15 10.53 104.254 22.683 142.945-41.388 18.92-79.949 47.865-113.778 84.61 3.522-75.935 23.719-152.526 61.802-219.159zM540.73 171.141l30.88-15.563c46.53-23.453 101.028-33.328 157.386-30.656-3.054 61.336-13.595 124.555-30.462 158.609l-15.409 31.102 32.795 10.813c62.683 20.672 121.266 67.945 165.858 132.016-7.364 37.18-23.672 79.258-54.73 116.078-4.116 211.555-175.833 386.461-386.686 386.461-210.635 0-382.206-174.57-386.662-385.812-19.579-23.391-43.018-61.359-53.699-118.828 44.336-63.25 101.965-109.188 164.796-129.914l32.795-10.82-15.409-31.094c-16.89-34.094-27.439-97.422-30.477-158.828 61.513-2.703 116.181 10.109 157.424 30.875l30.888 15.531 13.898-42.969c13.828-42.922 44.77-138.828 82.905-191.969 1.217-0.008 2.318-0.172 3.542-0.172 1.217 0 2.318 0.164 3.534 0.172 38.135 53.141 69.078 149.047 82.913 191.969l13.921 43zM682.667 206.222l-42.667-42.667-42.667 42.667 42.667 42.667 42.667-42.667zM241.778 163.556l-42.667 42.667 42.667 42.667 42.667-42.667-42.667-42.667zM114.018 583.611l-0.24 0.587c6.103 174.649 150.289 318.913 327.115 318.913s321.012-144.273 327.107-318.929l-0.24-0.602c-1.070-2.75-111.391-277.802-326.867-277.802-214.871 0-325.797 275.052-326.875 277.833zM440.889 106.667l-42.667 42.667 42.667 42.667 42.667-42.667-42.667-42.667zM540.444-64c91.257 11.801 166.045 42.87 225.038 86.661 1.255 10.151 2.019 21.245 2.518 32.719-57.348-2.175-113.35 5.399-163.993 22.842-15.239-42.247-36.002-96.052-63.563-142.222z" />
<glyph unicode="&#xe912;" glyph-name="shirt" horiz-adv-x="925" d="M363.355 431.484h-231.226v66.065h231.226v-66.065zM327.872 580.384l-187.448 280.52h-140.424v-924.903h429.419v746.001l-101.548-101.617zM792.774 431.484h-231.226v66.065h231.226v-66.065zM597.032 580.384l-101.548 101.617v-746.001h429.419v924.903h-140.424l-187.448-280.52zM462.452 746.181l-181.376 180.787-49.85-86.957 135.522-177.301zM594.581 960h-297.29l148.645-198.194zM591.188 662.71l135.522 177.301-49.85 86.957-181.376-180.787z" />
<glyph unicode="&#xe913;" glyph-name="trousers" horiz-adv-x="375" d="M199.805 960h-24.976v-74.927h24.976v74.927zM274.732 860.098h90.693c5.157-18.732 8.256-43.862 9.209-74.927h-16.46c-63.13 0.002-81.148 14.537-83.442 74.927zM16.334 785.171h-16.334c1.057 30.944 4.361 56.105 9.911 74.927h89.991c-2.297-60.392-20.343-74.927-83.569-74.927zM249.756 960h73.663c6.763 0 12.655-5.843 14.29-14.198l11.949-60.729h-99.902v74.927zM16.935 740.308c93.59 0 116.35 41.961 118.955 119.79h102.789c2.607-77.83 25.365-119.79 118.955-119.79h17c-0.477-60.221-5.877-135.312-16.32-223.085-0.17-4.775-17.018-479.829-17.018-564.111 0-9.464-7.632-17.112-17.034-17.112h-85.176c-9.421 0-17.034 7.649-17.034 17.112 0 4.602-0.204 461.313-16.951 545.406-6.031 30.342-11.958 60.1-17.12 88.234-5.23-28.407-11.225-58.544-17.376-89.382-16.507-82.946-16.695-539.657-16.695-544.259 0-9.464-7.632-17.112-17.034-17.112h-85.176c-9.421 0-17.034 7.649-17.034 17.112 0 84.282-16.865 559.336-16.899 562.536-11.397 88.473-17.274 164.079-17.767 224.659h16.935zM36.925 945.802c1.635 8.355 7.529 14.198 14.29 14.198h73.663v-74.927h-99.902l11.949 60.729z" />
<glyph unicode="&#xe914;" glyph-name="women-coat" horiz-adv-x="913" d="M355.886 723.018c0.745-4.804 3.902-8.902 8.378-10.873 4.472-1.971 9.652-1.547 13.739 1.13l92.475 60.523 92.503-60.523c4.087-2.673 9.263-3.101 13.739-1.126 4.472 1.971 7.629 6.069 8.374 10.876l22.908 147.661c5.739 36.998-17.704 72.334-54.222 81.587-1.508 0.382-3.024 0.72-4.542 1.005-22.628 4.244-49.676 6.722-78.75 6.722-29.092 0-56.16-2.482-78.802-6.74-1.988-0.372-3.979-0.841-5.967-1.394-35.846-9.931-58.414-44.808-52.741-81.34l22.908-147.508zM415.726 869.563c1.153 2.551 3.835 4.343 6.964 4.648 14.907 1.442 31.854 2.381 49.989 2.662 3.849 0.062 7.734 0.099 11.679 0.099 3.92 0 7.776-0.040 11.601-0.099 18.121-0.281 35.075-1.217 49.996-2.662 3.133-0.303 5.818-2.091 6.971-4.645s0.585-5.451-1.469-7.533l-67.149-68.088-67.127 68.085c-2.047 2.082-2.607 4.982-1.455 7.533zM910.982 371.341l-200.677 452.096c-10.149 22.846-29.275 40.598-52.931 49.038-5.965 2.147-12.088 3.642-18.279 4.499l-25.827-167.563c-2.615-16.96-13.681-31.426-29.372-38.387-6.54-2.903-13.507-4.334-20.446-4.334-9.712 0-19.374 2.805-27.736 8.312l-79.060 52.065-79.033-52.061c-8.365-5.51-18.023-8.315-27.739-8.315-6.936 0-13.903 1.431-20.44 4.331-15.691 6.961-26.761 21.421-29.379 38.381l-25.854 167.573c-6.19-0.86-12.327-2.352-18.316-4.495-23.626-8.439-42.721-26.192-52.87-49.038l-200.677-452.099c-5.868-13.193-0.373-28.678 12.572-35.166l54.329-27.374c6.456-3.229 13.876-3.817 20.709-1.613 6.768 2.264 12.418 7.139 15.647 13.563l146.782 291.084-90.893-643.6c-1.482-7.956 0.659-16.157 5.831-22.382s12.848-9.854 20.944-9.854h243.18v225.92c0 13.919 11.282 25.197 25.205 25.197s25.205-11.278 25.205-25.197v-225.92h234.089c10.348 0 20.161 4.596 26.785 12.545s9.363 18.428 7.504 28.607l-89.166 634.377 146.597-290.775c3.23-6.393 8.879-11.299 15.647-13.563 6.893-2.204 14.253-1.613 20.675 1.552l54.363 27.435c12.912 6.484 18.47 21.969 12.633 35.162zM442.811 268.108c-15.274 0-27.676 12.372-27.676 27.646 0 15.307 12.398 27.706 27.676 27.706 15.274 0 27.676-12.398 27.676-27.706-0.003-15.274-12.402-27.646-27.676-27.646zM442.811 378.811c-15.274 0-27.676 12.424-27.676 27.689 0 15.268 12.398 27.662 27.676 27.662 15.274 0 27.676-12.391 27.676-27.662-0.003-15.265-12.402-27.689-27.676-27.689zM442.811 489.514c-15.274 0-27.676 12.398-27.676 27.676s12.398 27.676 27.676 27.676c15.274 0 27.676-12.398 27.676-27.676-0.003-15.274-12.402-27.676-27.676-27.676zM442.811 600.216c-15.274 0-27.676 12.398-27.676 27.674s12.398 27.677 27.676 27.677c15.274 0 27.676-12.398 27.676-27.677-0.003-15.276-12.402-27.674-27.676-27.674z" />
<glyph unicode="&#xe915;" glyph-name="women-top" horiz-adv-x="654" d="M605.672 120.185c-43.844 80.992-93.542 172.79-40.792 253.965 46.833 72.069 70.766 143.113 71.129 211.155 0.353 66.312-21.894 107.625-31.476 122.31-11.847 18.155-12.473 37.977-12.475 38.042v195.229c0 15.118-9.297 19.113-14.212 19.113h-53.215c-5.121 0-14.807-4.123-14.807-19.728v-2.529c0.002-41.166 0.009-126.822-5.374-203.864-3.781-54.106-94.576-78.752-177.339-78.752s-173.558 24.643-177.339 78.752c-5.384 77.042-5.377 162.699-5.374 203.864v2.529c0 15.605-9.686 19.728-14.807 19.728h-53.213c-4.914 0-14.212-3.994-14.212-19.113l0.002-195.11c-0.005-0.197-0.548-19.883-12.478-38.162-9.582-14.685-31.831-55.998-31.476-122.31 0.363-68.045 24.296-139.086 71.129-211.155 52.928-81.451 2.908-173.914-41.226-255.494-25.821-47.724-48.118-88.941-48.118-123.422 0-20.356 34.483-35.345 105.42-45.825 58.535-8.647 137.263-13.409 221.691-13.409s163.156 4.762 221.691 13.409c70.937 10.48 105.42 25.469 105.42 45.825 0 35.268-23.582 78.831-48.55 124.951z" />
<glyph unicode="&#xe916;" glyph-name="menbership" d="M512-64c-282.77 0-512 229.23-512 512s229.23 512 512 512c282.77 0 512-229.23 512-512s-229.23-512-512-512zM292.122 101.192c2.021 0 4.055 0.483 5.911 1.45l205.708 108.201 205.682-108.201c4.284-2.277 9.483-1.908 13.399 0.967 3.903 2.849 5.86 7.671 5.047 12.441l-39.28 229.187 166.414 162.328c3.47 3.371 4.703 8.434 3.216 13.026-1.513 4.618-5.479 7.963-10.271 8.663l-229.975 33.442-102.841 208.529c-2.123 4.35-6.547 7.098-11.39 7.098-4.831 0-9.254-2.748-11.39-7.098l-102.854-208.529-229.962-33.442c-4.792-0.7-8.771-4.058-10.271-8.663-1.487-4.592-0.242-9.642 3.216-13.026l166.414-162.302-39.293-229.2c-0.826-4.77 1.131-9.591 5.047-12.441 2.212-1.616 4.843-2.43 7.475-2.43zM181.677 512.212l215.771 31.222c4.236 0.608 7.888 3.262 9.785 7.081l96.509 194.775 96.509-194.762c1.897-3.819 5.549-6.472 9.785-7.081l215.771-31.235-156.14-151.618c-3.054-2.977-4.457-7.262-3.729-11.456l36.852-214.075-192.992 101.070c-3.807 1.993-8.316 1.993-12.098 0l-193.018-101.070 36.865 214.075c0.728 4.194-0.676 8.492-3.729 11.456l-156.14 151.618z" />
<glyph unicode="&#xe917;" glyph-name="certificate" d="M917.246 448.16l91.97 90.010c27.416 25.954 14.632 72.078-21.328 80.678l-125.3 31.98 35.322 124.030c9.982 35.676-23.658 69.326-59.322 59.342l-123.988-35.334-31.968 125.342c-8.46 35.398-55.1 48.344-80.65 21.336l-89.98-92.684-89.978 92.682c-25.26 26.702-72.094 14.468-80.65-21.336l-31.968-125.342-123.99 35.334c-35.674 9.988-69.302-23.674-59.322-59.342l35.322-124.030-125.3-31.98c-35.976-8.602-48.734-54.734-21.33-80.676l91.97-90.010-91.97-90.008c-27.416-25.954-14.632-72.078 21.328-80.678l125.3-31.98-35.322-124.030c-9.982-35.676 23.658-69.326 59.322-59.342l123.988 35.334 31.968-125.342c8.878-37.15 55.392-48.036 80.65-21.336l89.982 92.002 89.978-92.002c25-26.976 71.974-14.972 80.65 21.336l31.968 125.342 123.988-35.334c35.672-9.988 69.302 23.674 59.322 59.342l-35.322 124.030 125.3 31.98c35.974 8.604 48.732 54.734 21.328 80.678l-91.968 90.008z" />
<glyph unicode="&#xe918;" glyph-name="Coupon" horiz-adv-x="1548" d="M1503.122 960h-1045.698v-138.572c0-25.531-20.291-46.191-45.366-46.191s-45.366 20.66-45.366 46.191v138.572h-321.326c-25.075 0-45.366-20.66-45.366-46.191v-277.144c0-25.531 20.291-46.191 45.366-46.191 75.047 0 136.098-62.16 136.098-138.572s-61.050-138.572-136.098-138.572c-25.075 0-45.366-20.66-45.366-46.191v-277.144c0-25.531 20.291-46.191 45.366-46.191h317.561v138.572c0 25.531 20.291 46.191 45.366 46.191s45.366-20.66 45.366-46.191v-138.572h1049.463c25.075 0 45.366 20.66 45.366 46.191v923.814c0 25.531-20.291 46.191-45.366 46.191zM459.707 258.341c0-26.747-21.643-48.39-48.39-48.39s-48.39 21.643-48.39 48.39v96.78c0 26.747 21.643 48.39 48.39 48.39s48.39-21.643 48.39-48.39v-96.78zM459.707 548.683c0-26.747-21.643-48.39-48.39-48.39s-48.39 21.643-48.39 48.39v96.78c0 26.747 21.643 48.39 48.39 48.39s48.39-21.643 48.39-48.39v-96.78zM725.854 633.366c0 73.38 59.694 133.073 133.073 133.073s133.073-59.694 133.073-133.073c0-73.38-59.694-133.073-133.073-133.073s-133.073 59.694-133.073 133.073zM843.119 121.005c-21.142 14.31-26.845 43.244-12.748 64.709l367.741 559.951c14.051 21.462 42.557 27.204 63.745 12.941 21.142-14.31 26.845-43.244 12.748-64.709l-367.741-559.951c-13.867-21.144-42.266-27.394-63.745-12.941zM1221.854 137.366c-73.38 0-133.073 59.694-133.073 133.073s59.694 133.073 133.073 133.073c73.38 0 133.073-59.694 133.073-133.073s-59.694-133.073-133.073-133.073z" />
<glyph unicode="&#xe919;" glyph-name="full-size" horiz-adv-x="951" d="M36.039 605.151c19.908 0 36.039 16.123 36.039 36.010v153.535l232.113-231.878c7.040-7.029 16.261-10.544 25.482-10.544 9.226 0 18.452 3.515 25.487 10.548 14.074 14.063 14.074 36.864-0.005 50.922l-232.123 231.882h153.693c19.903 0 36.039 16.123 36.039 36.010s-16.131 36.010-36.039 36.010h-240.686c-19.908 0-36.039-16.123-36.039-36.010v-240.481c0-19.882 16.131-36.005 36.039-36.005zM915.505 274.146c-19.526 0-35.348-15.812-35.348-35.316v-150.582l-234.67 234.46c-13.809 13.792-36.186 13.792-49.991 0s-13.804-36.154 0-49.941l234.666-234.455h-150.708c-19.526 0-35.348-15.812-35.348-35.316s15.822-35.316 35.348-35.316h236.056c19.526 0 35.348 15.812 35.348 35.316v235.835c-0.005 19.504-15.831 35.316-35.352 35.316zM305.366 322.707l-234.665-234.449v150.573c0 19.503-15.823 35.315-35.35 35.315s-35.35-15.812-35.35-35.315v-235.838c0-19.503 15.823-35.315 35.35-35.315h236.065c19.523 0 35.35 15.812 35.35 35.315s-15.823 35.315-35.35 35.315h-150.725l234.67 234.458c13.805 13.792 13.805 36.153-0.005 49.945-13.796 13.787-36.18 13.787-49.99-0.005zM914.811 917.647h-240.69c-19.909 0-36.042-16.122-36.042-36.007s16.132-36.007 36.042-36.007h153.676l-232.098-231.891c-14.075-14.062-14.075-36.862 0.005-50.924 7.035-7.029 16.262-10.543 25.484-10.543s18.448 3.519 25.489 10.548l232.098 231.891v-153.535c0-19.886 16.132-36.007 36.042-36.007s36.042 16.122 36.042 36.007v240.461c-0.005 19.89-16.142 36.007-36.046 36.007z" />
<glyph unicode="&#xe91a;" glyph-name="good" d="M512-42.667c-270.988 0-490.667 219.679-490.667 490.667s219.679 490.667 490.667 490.667c270.988 0 490.667-219.679 490.667-490.667s-219.679-490.667-490.667-490.667zM512 0c247.424 0 448 200.576 448 448s-200.576 448-448 448c-247.424 0-448-200.576-448-448s200.576-448 448-448z" />
<glyph unicode="&#xe91b;" glyph-name="line" horiz-adv-x="7100" d="M38.772 15.163l-22.431 3.831 7.662 44.861 22.431-3.831c37.459-6.398 74.726-12.204 111.8-17.418l22.534-3.169-6.338-45.068-22.534 3.169c-37.519 5.277-75.227 11.151-113.124 17.624zM265.443-16.667l-22.621 2.475 4.951 45.241 22.621-2.475c37.739-4.13 75.276-7.633 112.609-10.51l22.688-1.749-3.497-45.377-22.688 1.749c-37.82 2.915-75.841 6.463-114.062 10.646zM494.113-34.232l-22.734 0.989 1.978 45.468 22.734-0.989c37.847-1.646 75.482-2.635 112.903-2.965l22.755-0.201-0.402-45.509-22.755 0.201c-37.948 0.335-76.107 1.337-114.478 3.006zM723.154-36.207l-22.747-0.615-1.23 45.494 22.747 0.615c37.816 1.023 75.409 2.733 112.78 5.131l22.709 1.457 2.914-45.418-22.709-1.457c-37.933-2.434-76.087-4.169-114.463-5.207zM952.333-21.443l-22.637-2.325-4.649 45.273 22.637 2.325c37.574 3.858 74.918 8.429 112.033 13.711l22.529 3.206 6.413-45.057-22.529-3.206c-37.702-5.366-75.634-10.008-113.796-13.927zM1178.971 10.83l-22.383-4.098-8.197 44.767 22.383 4.098c37.105 6.794 73.976 14.317 110.611 22.57l22.199 5.001 10.002-44.399-22.199-5.001c-37.235-8.388-74.707-16.034-112.416-22.938zM1402.958 61.313l-21.976-5.906-11.813 43.951 21.976 5.906c36.35 9.77 72.463 20.276 108.34 31.52l21.714 6.805 13.611-43.428-21.714-6.805c-36.473-11.431-73.185-22.112-110.138-32.043zM1622.249 130.061l-21.414-7.697-15.394 42.829 21.414 7.697c35.366 12.712 70.497 26.16 105.393 40.343l21.081 8.568 17.137-42.161-21.081-8.568c-35.472-14.418-71.184-28.088-107.136-41.010zM1835.238 216.64l-20.713-9.422-18.843 41.427 20.713 9.422c34.159 15.537 68.087 31.8 101.784 48.787l20.32 10.244 20.487-40.639-20.32-10.244c-34.239-17.261-68.715-33.786-103.428-49.575zM2040.727 320.235l-19.898-11.040-22.079 39.797 19.898 11.040c32.774 18.183 65.325 37.072 97.65 56.667l19.46 11.796 23.591-38.919-19.46-11.796c-32.823-19.896-65.877-39.077-99.162-57.544zM2235.245 438l-19.1-12.369-24.739 38.2 19.1 12.369c31.86 20.632 66.369 39.121 103.459 55.513l20.814 9.198 18.397-41.627-20.814-9.198c-34.936-15.44-67.324-32.792-97.117-52.086zM2437.128 528.435l-21.799-6.529-13.057 43.598 21.799 6.529c35.747 10.706 73.318 19.906 112.671 27.631l22.329 4.383 8.766-44.659-22.329-4.383c-37.939-7.447-74.079-16.297-108.38-26.57zM2656.45 572.214l-22.6-2.654-5.309 45.2 22.6 2.654c36.996 4.345 75.287 7.598 114.845 9.781l22.721 1.254 2.507-45.442-22.721-1.254c-38.64-2.132-75.999-5.306-112.044-9.539zM2880.398 585.016l-22.755-0.108-0.217 45.511 22.755 0.108c37.302 0.178 75.565-0.478 114.766-1.951l22.74-0.854-1.709-45.479-22.74 0.854c-38.57 1.449-76.192 2.094-112.84 1.919zM3106.412 576.748l-22.694 1.672 3.345 45.388 22.694-1.672c37.262-2.746 75.259-6.154 113.969-10.211l22.632-2.372-4.744-45.263-22.632 2.372c-38.252 4.009-75.782 7.375-112.57 10.086zM3331.962 553.241l-22.559 2.983 5.966 45.118 22.559-2.983c37.13-4.91 74.831-10.362 113.084-16.345l22.482-3.517-7.033-44.964-22.482 3.517c-37.903 5.929-75.248 11.33-112.017 16.191zM3555.467 518.384l-22.403 3.989 7.979 44.806 22.403-3.989c36.981-6.585 74.407-13.625 112.261-21.109l22.323-4.414-8.827-44.647-22.323 4.414c-37.575 7.429-74.718 14.416-111.413 20.95zM3777.717 474.515l-22.244 4.796 9.592 44.489 22.244-4.796c36.804-7.935 73.945-16.254 111.41-24.949l22.167-5.144-10.288-44.333-22.167 5.144c-37.235 8.641-74.145 16.909-110.713 24.793zM3998.873 423.24l-22.090 5.463 10.927 44.18 22.090-5.463c36.618-9.056 73.476-18.439 110.559-28.136l22.015-5.757-11.514-44.030-22.015 5.757c-36.89 9.647-73.552 18.979-109.971 27.987zM4218.747 365.773l-21.942 6.030 12.061 43.884 21.942-6.030c36.472-10.024 73.085-20.32 109.824-30.878l21.87-6.285-12.57-43.741-21.87 6.285c-36.572 10.51-73.015 20.758-109.315 30.735zM4437.297 302.992l-21.8 6.524 13.049 43.6 21.8-6.524c36.322-10.87 72.672-21.959 109.034-33.254l21.731-6.75-13.5-43.463-21.731 6.75c-36.214 11.248-72.413 22.291-108.583 33.116zM4654.268 235.616l-21.663 6.965 13.93 43.327 21.663-6.965c36.241-11.651 72.356-23.456 108.334-35.402l21.596-7.17-14.341-43.193-21.596 7.17c-35.843 11.901-71.822 23.661-107.923 35.268zM4869.123 164.299l-21.53 7.368 14.735 43.060 21.53-7.368c36.27-12.412 72.158-24.878 107.68-37.391l21.463-7.561-15.121-42.926-21.463 7.561c-35.396 12.469-71.155 24.89-107.294 37.257zM5083.211 88.889l-21.395 7.75 15.501 42.79 21.395-7.75c36.563-13.245 72.081-26.296 106.993-39.289l21.327-7.937-15.874-42.653-21.327 7.937c-34.792 12.948-70.185 25.954-106.62 39.152zM5296.613 9.647l-21.383 7.784 15.568 42.766 21.383-7.784c35.643-12.976 71.17-24.168 106.58-33.578l21.992-5.845-11.689-43.984-21.992 5.845c-36.732 9.762-73.551 21.362-110.458 34.797zM5520.907-49.564l-22.46 3.658 7.317 44.919 22.46-3.658c37.019-6.030 73.916-10.089 110.692-12.18l22.719-1.291-2.583-45.438-22.719 1.291c-38.369 2.181-76.846 6.414-115.426 12.698zM5752.911-62.554l-22.725-1.185-2.371 45.449 22.725 1.185c37.007 1.93 73.901 5.88 110.686 11.849l22.462 3.645 7.29-44.923-22.462-3.645c-38.412-6.233-76.948-10.358-115.605-12.375zM5981.766-25.596l-21.957-5.977-11.954 43.913 21.957 5.977c35.426 9.644 70.758 21.185 105.998 34.625l21.262 8.109 16.218-42.523-21.262-8.109c-36.629-13.97-73.383-25.976-110.262-36.015zM6198.988 56.97l-20.439-10.003-20.006 40.878 20.439 10.003c32.89 16.096 65.702 33.867 98.435 53.312l19.564 11.622 23.244-39.128-19.564-11.622c-33.779-20.067-67.67-38.421-101.674-55.063zM6398.633 175.253l-18.67-13.010-26.020 37.34 18.67 13.010c30.077 20.959 60.087 43.347 90.028 67.164l17.808 14.166 28.332-35.617-17.808-14.166c-30.686-24.41-61.466-47.372-92.341-68.887zM6577.604 317.118l-17.002-15.125-30.249 34.003 17.002 15.125c27.478 24.445 54.897 50.104 82.256 76.977l16.234 15.946 31.892-32.468-16.234-15.946c-27.888-27.394-55.854-53.565-83.899-78.513zM6741.777 478.088l-15.519-16.642-33.284 31.039 15.519 16.642c25.17 26.991 50.288 55.018 75.352 84.081l14.861 17.232 34.465-29.723-14.861-17.232c-25.446-29.505-50.957-57.971-76.533-85.397zM6891.902 651.939l-14.253-17.739-35.478 28.506 14.253 17.739c23.185 28.856 46.324 58.606 69.417 89.249l13.695 18.173 36.346-27.39-13.695-18.173c-23.374-31.016-46.802-61.138-70.285-90.364zM7029.988 834.998l-13.179-18.55-37.101 26.359 13.179 18.55c15.318 21.561 30.616 43.518 45.892 65.871l12.84 18.787 37.574-25.679-12.84-18.787c-15.432-22.58-30.887-44.763-46.366-66.55z" />
<glyph unicode="&#xe91c;" horiz-adv-x="853" d="M240.762 429.52h329.143c15.164 0 27.429 12.667 27.429 28.313v341.643c0 15.646-12.264 28.313-27.429 28.313h-82.286v28.313c0 46.834-36.914 84.939-82.286 84.939s-82.286-38.105-82.286-84.939v-28.313h-82.286c-15.157 0-27.429-12.667-27.429-28.313v-341.643c0-15.646 12.271-28.313 27.429-28.313zM377.905 856.103c0 15.624 12.321 28.313 27.429 28.313s27.429-12.689 27.429-28.313v-28.313h-54.857v28.313z" />
<glyph unicode="&#xe91d;" horiz-adv-x="853" d="M849.192 458.492c-5.146 8.457-14.49 13.655-24.497 13.655-50.456 0-96.744-27.686-120.168-71.873l-87.84-165.746c-14.93-28.091-44.073-45.507-76.117-45.507h-194.473c-15.825 0-28.636 12.667-28.636 28.313s12.812 28.313 28.636 28.313h194.466c10.686 0 20.418 5.803 25.4 15.181 4.959 9.364 19.941 37.639 32.82 61.941 4.057 7.653 3.773 16.847-0.753 24.243-4.534 7.388-12.64 11.885-21.38 11.885h-297.668c-38.256 0-74.163-14.739-101.234-41.473l-169.357-167.442c-11.186-11.060-11.186-28.976 0-40.036l143.181-141.017c5.593-5.53 12.924-8.302 20.247-8.302s14.654 2.772 20.247 8.302l108.616 106.843h239.881c74.782 0 142.846 40.699 177.582 106.202l131.883 248.701c4.698 8.767 4.363 19.325-0.835 27.819z" />
<glyph unicode="&#xe91e;" glyph-name="product" d="M650.253 624.549c-1.071 12.629-11.745 22.305-24.485 22.181h-62.677v14.876c0 55.343-45.059 100.2-100.639 100.2s-100.639-44.857-100.639-100.2v-14.876h-62.677c-12.673-0.048-23.252-9.629-24.485-22.181l-26.695-304.276c-1.463-18.114 4.648-36.019 16.901-49.495 12.338-13.381 29.746-20.99 47.986-20.971h299.22c18.24-0.019 35.647 7.59 47.986 20.971 12.243 13.476 18.364 31.381 16.901 49.495l-26.695 304.276zM412.903 661.014c0 28.303 22.188 51.244 49.548 51.244s49.548-22.942 49.548-51.244v-14.82h-99.097v14.82zM796.956 197.577l219.905-220.016c4.572-4.565 7.139-10.762 7.139-17.227 0-6.474-2.567-12.672-7.139-17.237-4.648-4.526-10.871-7.067-17.352-7.095-6.509-0.086-12.771 2.473-17.352 7.095l-219.905 220.016c-184.151-165.566-466.601-154.25-636.932 25.506-170.34 179.766-166.57 462.56 8.495 637.723 178.367 178.209 468.157 178.209 646.276 0 171.801-171.773 179.207-448.026 16.865-628.766zM623.198 304.447c-3.049-3.329-7.412-5.192-11.947-5.088h-297.787c-4.506 0.019-8.822 1.853-11.947 5.088-3.096 3.244-4.611 7.66-4.144 12.104l24.627 280.094h40.241v-39.462c-20.349-11.736-29.276-36.275-21.178-58.215 8.088-21.939 30.876-34.951 54.055-30.866 23.169 4.085 40.050 24.086 40.050 47.444 0.048 17.173-9.165 33.060-24.15 41.637v39.462h102.927v-39.462c-20.349-11.736-29.285-36.275-21.187-58.215s30.876-34.951 54.055-30.866c23.169 4.085 40.060 24.086 40.050 47.444 0.048 17.173-9.165 33.060-24.141 41.637v39.462h40.241l24.627-280.094c0.238-4.454-1.343-8.823-4.392-12.104zM454.103 101.162c107.393-0.227 210.421 42.44 286.223 118.517 136.485 136.485 157.558 350.382 50.326 510.885-107.222 160.503-312.891 222.909-491.229 149.067-178.347-73.842-279.691-263.38-242.079-452.701 37.622-189.32 203.737-325.711 396.758-325.768z" />
<glyph unicode="&#xe91f;" glyph-name="Reservation" horiz-adv-x="1628" d="M463.218 954.352c71.138-11.079 149.181-35.326 213.206-66.472 10.252-4.808 19.877-8.988 21.132-8.988s11.298 4.181 21.969 9.615c29.083 14.005 83.274 35.117 112.775 43.479 68 19.858 110.892 26.338 181.194 27.801 88.923 1.881 156.923-8.57 242.289-37.208 80.763-27.174 113.821-47.659 129.723-80.059 10.88-22.157 12.554-52.885 3.766-69.817-3.975-7.943-29.083-42.224-30.966-42.224-0.418 0-2.72 1.045-5.022 2.090-3.557 2.090-3.975 4.599-3.975 24.875 0 35.745-7.742 54.766-30.966 75.461-13.182 11.915-30.966 21.112-66.326 34.49-77.834 29.683-150.018 43.27-228.061 43.27-85.157 0-159.643-15.468-242.707-50.795-37.662-16.095-49.169-22.366-54.609-30.519l-4.394-6.48-1.255-268.397c-2.092-383.365-1.883-538.467 0.628-547.664 3.348-11.497 7.532-11.706 30.966-0.836 65.698 29.892 124.074 47.659 192.911 58.111 34.732 5.435 115.495 6.48 150.646 2.090 50.006-6.271 100.431-19.022 151.692-38.044 46.449-17.35 69.255-16.723 85.575 2.508 15.065 17.559 14.437 10.243 15.902 183.53 1.465 178.095-0.418 160.746 21.969 197.117 6.695 10.452 12.345 19.44 12.554 19.858 0.209 0.209 2.929-0.627 6.068-1.881l5.44-2.508-0.418-212.377-0.628-212.377-5.44-11.497c-11.508-24.248-27.409-35.535-53.145-37.208-12.763-0.836-17.366 0-32.431 5.435-9.834 3.345-31.385 11.079-47.914 16.932-169.268 60.41-341.046 51.004-520.566-28.219-34.523-15.259-40.172-15.259-74.695 0-103.778 45.987-195.421 66.472-296.27 66.681-89.969 0.209-162.154-13.796-254.006-49.123-31.803-12.124-48.332-14.632-66.326-9.197-15.902 4.39-28.874 16.305-36.615 33.027l-6.068 13.169-0.628 402.178c-0.418 439.595-1.255 412.42 11.298 438.131 7.323 14.841 22.806 31.982 37.871 42.015 34.732 22.994 133.698 55.603 205.674 67.517 43.729 7.316 59.421 8.361 120.308 7.525 46.868-0.418 64.443-1.463 87.877-5.017zM1566.86 781.465c30.846-32.914 57.431-62.756 59.054-66.267 3.247-6.583 3.247-6.583-5.682-14.482-4.87-4.169-16.641-15.579-26.179-25.453s-20.293-19.309-23.743-21.504c-8.726-4.827-18.467-4.389-26.99 1.097-3.856 2.633-28.411 27.648-54.184 55.515-43.428 46.738-47.284 51.565-47.284 58.587 0 6.802 2.841 10.532 29.020 38.619 27.396 29.184 31.455 32.914 37.34 33.353 1.421 0.219 27.802-26.55 58.648-59.464zM1456.891 666.181c53.896-55.042 54.728-55.892 54.728-64.605v-8.713l-189.364-192.753c-125.896-128.148-192.069-193.815-196.856-195.94-10.821-4.675-62.012-7.863-84.277-5.313-33.919 3.825-36.624 7.226-39.746 53.767-2.081 27.84-1.873 34.853 1.040 49.091 3.954 19.977 10.613 35.065 21.434 49.304 4.37 5.95 87.815 91.595 185.202 190.84 173.549 176.601 177.087 180.002 184.994 180.002s10.197-2.125 62.844-55.679z" />
<glyph unicode="&#xe920;" horiz-adv-x="983" d="M530.737 530.322c55.775 44.148 127.237 69.618 205.671 69.618 41.831 0 81.92-8.49 120.266-22.074 1.743 13.584 3.486 28.866 3.486 42.45 0 176.591-146.41 319.223-327.68 319.223s-327.68-142.632-327.68-319.223c0-15.282 1.743-28.866 3.486-42.45 36.603 13.584 76.691 22.074 120.266 22.074 74.948 0 146.41-27.168 202.186-69.618z" />
<glyph unicode="&#xe921;" horiz-adv-x="983" d="M327.68 599.94c78.051 0 147.429-27.168 204.667-69.618 55.503 44.148 126.616 69.618 204.667 69.618 41.627 0 81.52-8.49 119.678-22.074 1.734 13.584 3.469 28.866 3.469 42.45 0 176.591-145.695 319.223-326.079 319.223z" />
<glyph unicode="&#xe922;" horiz-adv-x="983" d="M377.475 275.323c0 15.219 1.606 28.747 3.213 42.274-99.589 40.583-173.478 136.969-189.54 253.647-110.833-47.347-191.147-160.643-191.147-295.921 0-175.862 134.927-317.904 301.98-317.904 72.282 0 136.533 27.056 189.54 69.33-69.070 59.184-114.045 148.806-114.045 248.574z" />
<glyph unicode="&#xe923;" horiz-adv-x="983" d="M327.68-42.581c78.102 0 147.525 27.665 204.8 70.892-74.631 58.789-123.227 150.43-123.227 254.176 0 15.562 1.736 29.394 3.471 43.227z" />
<glyph unicode="&#xe924;" horiz-adv-x="983" d="M791.879 571.244c-14.456-116.678-88.341-211.372-189.531-253.647 1.606-13.528 3.212-28.747 3.212-42.274 0-99.768-44.974-189.39-114.040-248.574 51.398-43.965 117.252-69.33 189.531-69.33 167.045 0 301.965 142.042 301.965 317.904 1.606 135.278-78.704 248.574-191.137 295.921z" />
<glyph unicode="&#xe925;" horiz-adv-x="983" d="M491.52 28.814c51.401-45.275 117.258-71.395 189.54-71.395 167.053 0 301.98 146.273 301.98 327.373z" />
<glyph unicode="&#xe926;" horiz-adv-x="983" d="M512 530.322c-54.91-44.281-92.012-109.939-102.4-184.758 31.165-12.215 65.299-19.85 102.4-19.85 35.617 0 69.751 7.635 102.4 19.85-10.388 73.293-47.49 138.95-102.4 184.758z" />
<glyph unicode="&#xe927;" horiz-adv-x="983" d="M491.52 325.714c42.741 0 83.701 7.635 122.88 19.85-12.466 74.819-56.988 140.477-122.88 184.758z" />
<glyph unicode="&#xe928;" horiz-adv-x="983" d="M612.429 284.792c108.643 42.177 189.248 142.347 206.771 263.606-36.798 14.059-77.101 22.846-120.909 22.846-77.101 0-148.945-28.118-206.771-72.052 64.835-52.721 108.643-128.288 120.909-214.399z" />
<glyph unicode="&#xe929;" horiz-adv-x="983" d="M532.48 499.192c-56.074 45.692-127.918 72.052-206.771 72.052-42.055 0-82.358-8.787-120.909-22.846 15.771-121.259 96.376-219.672 206.771-263.606 12.266 86.111 56.074 161.678 120.909 214.399z" />
<glyph unicode="&#xe92a;" horiz-adv-x="983" d="M655.36 284.078c0 14.989-1.731 28.312-3.461 41.635-36.345-13.323-76.151-21.65-119.419-21.65-41.537 0-81.343 8.327-119.419 21.65-1.731-13.323-3.461-28.312-3.461-41.635 0-98.26 48.46-186.527 122.88-244.816 74.42 58.29 122.88 146.557 122.88 244.816z" />
<glyph unicode="&#xe92b;" glyph-name="Shop" horiz-adv-x="1041" d="M944.442 89.169c20.648 31.256 32.71 68.59 32.71 108.691 0 95.618-68.356 175.659-159.073 194.464v107.889c48.886 31.166 81.437 85.481 81.783 147.266 0.005 0.287 0.022 0.574 0.022 0.861 0 0.043 0.003 0.084 0.003 0.127 0 0.26-0.035 0.512-0.041 0.772-0.022 1.048-0.057 2.099-0.161 3.156-0.063 0.669-0.183 1.322-0.284 1.983-0.095 0.647-0.166 1.295-0.297 1.94-0.207 1.054-0.48 2.086-0.766 3.104-0.068 0.241-0.106 0.482-0.177 0.721l-0.057 0.19c-0.038 0.116-0.071 0.238-0.109 0.355l-81.642 270.355c-5.189 17.186-21.115 28.956-39.178 28.956h-654.463c-18.063 0-33.988-11.77-39.178-28.956l-81.644-270.35c-0.038-0.116-0.071-0.238-0.109-0.355l-0.057-0.19c-0.071-0.238-0.109-0.479-0.18-0.721-0.286-1.021-0.559-2.053-0.766-3.104-0.131-0.645-0.202-1.292-0.297-1.94-0.098-0.661-0.218-1.314-0.281-1.983-0.104-1.056-0.139-2.108-0.161-3.156-0.003-0.26-0.038-0.515-0.038-0.775 0-0.043 0.003-0.084 0.003-0.127 0-0.287 0.016-0.574 0.022-0.861 0.346-61.788 32.898-116.1 81.783-147.266v-396.167c0-22.441 18.314-40.634 40.904-40.634h507.403c36.571-39.442 88.95-64.21 147.061-64.21 40.369 0 77.955 11.984 109.421 32.502l84.366-83.807c7.99-7.937 18.456-11.9 28.925-11.9s20.94 3.969 28.922 11.9c15.972 15.869 15.972 41.596 0 57.465l-84.366 83.804zM580.078 206.686c0-18.17 2.582-35.748 7.311-52.457h-419.521v323.819c4.49-0.337 9.010-0.564 13.589-0.564 54.589 0 103.461 24.477 135.894 62.843 32.432-38.364 81.305-62.843 135.894-62.843s103.461 24.477 135.894 62.843c32.432-38.364 81.305-62.843 135.894-62.843 4.58 0 9.099 0.227 13.589 0.564v-79.541c-90.416-18.55-158.545-97.503-158.545-191.821zM772.197 87.082c-64.796 0-117.508 52.712-117.508 117.508s52.712 117.508 117.508 117.508c64.796 0 117.508-52.715 117.508-117.508s-52.712-117.508-117.508-117.508z" />
<glyph unicode="&#xe92c;" glyph-name="very-good" d="M512 0c247.424 0 448 200.576 448 448s-200.576 448-448 448c-247.424 0-448-200.576-448-448s200.576-448 448-448zM512-42.667c-270.988 0-490.667 219.679-490.667 490.667s219.679 490.667 490.667 490.667c270.988 0 490.667-219.679 490.667-490.667s-219.679-490.667-490.667-490.667zM512 86.805c-199.483 0-361.195 161.713-361.195 361.195s161.713 361.195 361.195 361.195c199.483 0 361.195-161.713 361.195-361.195s-161.713-361.195-361.195-361.195zM512 129.471c175.919 0 318.529 142.61 318.529 318.529s-142.61 318.529-318.529 318.529c-175.919 0-318.529-142.61-318.529-318.529s142.61-318.529 318.529-318.529z" />
</font>
</defs>
</svg>
