<?xml version="1.0" encoding="UTF-8"?>
<svg width="62px" height="62px" viewBox="0 0 62 62" version="1.1" xmlns="http://www.w3.org/2000/svg" xmlns:xlink="http://www.w3.org/1999/xlink">
    <!-- Generator: sketchtool 50.2 (55047) - http://www.bohemiancoding.com/sketch -->
    <title>A278F172-CE32-4756-8B8B-9FDF3771F049</title>
    <desc>Created with sketchtool.</desc>
    <defs></defs>
    <g id="Pink-Design-For-Dev" stroke="none" stroke-width="1" fill="none" fill-rule="evenodd">
        <g id="Homepage" transform="translate(-22.000000, -803.000000)" fill="#FFFFFF" fill-rule="nonzero">
            <g id="Group-6" transform="translate(7.000000, 785.000000)">
                <g id="search" transform="translate(15.000000, 18.000000)">
                    <path d="M39.3708058,20.3104905 C39.3059456,19.5458699 38.6596604,18.9600069 37.8882876,18.9675033 L34.0933887,18.9675033 L34.0933887,18.0667964 C34.0933887,14.7159596 31.3652078,12 28.0000074,12 C24.6348071,12 21.9066262,14.7159596 21.9066262,18.0667964 L21.9066262,18.9675033 L18.1117273,18.9675033 C17.3444082,18.9703864 16.7039141,19.550483 16.6292091,20.3104905 L15.0129168,38.7334616 C14.9243132,39.830225 15.2943636,40.9143023 16.0362019,41.7302434 C16.7832519,42.5404183 17.8372297,43.0011512 18.9415899,42.9999978 L37.058425,42.9999978 C38.1627852,43.0011512 39.2167628,42.5404183 39.963813,41.7302434 C40.7050721,40.9143023 41.0757017,39.830225 40.9870981,38.7334616 L39.3708058,20.3104905 Z M25,18.1026856 C25,16.3890565 26.3433912,15 27.9999999,15 C29.6566086,15 31,16.3890565 31,18.1026856 L31,19 L25,19 L25,18.1026856 Z M48.2531909,46.1623189 L61.5677395,59.4836261 C61.8445479,59.7599969 62,60.135237 62,60.526666 C62,60.9186733 61.8445479,61.2939132 61.5677395,61.570284 C61.2863078,61.8443422 60.9095246,61.9981385 60.5171383,61.999873 C60.1230185,62.0050766 59.7439237,61.8501239 59.4665373,61.570284 L46.1519887,48.2489768 C35.00221,58.2734918 17.9007589,57.5883465 7.58776255,46.7046535 C-2.72581147,35.8203822 -2.49754552,18.6981083 8.1020833,8.09252072 C18.9016616,-2.69750691 36.447509,-2.69750691 47.2320621,8.09252072 C57.6340532,18.4928538 58.0824946,35.2190732 48.2531909,46.1623189 Z M37.7326669,39.6917092 C37.5480863,39.8932523 37.2839051,40.0060479 37.0093414,39.9997496 L18.9792738,39.9997496 C18.7064405,39.9986044 18.4451434,39.8875267 18.2559483,39.6917092 C18.0684836,39.4953192 17.9767701,39.227931 18.0050341,38.958825 L19.4960995,22 L21.932564,22 L21.932564,24.3893169 C20.7004882,25.0998709 20.1600131,26.5856791 20.6503053,27.9140317 C21.1400208,29.2423842 22.5197611,30.0302347 23.9231508,29.7828863 C25.3259636,29.5355379 26.3480791,28.3245613 26.3480791,26.9103239 C26.3509631,25.8705445 25.7931835,24.908634 24.8858543,24.3893169 L24.8858543,22 L31.1177582,22 L31.1177582,24.3893169 C29.8856824,25.0998709 29.3446303,26.5856791 29.8349227,27.9140317 C30.325215,29.2423842 31.7043785,30.0302347 33.1077681,29.7828863 C34.510581,29.5355379 35.5332731,28.3245613 35.5326963,26.9103239 C35.5355805,25.8705445 34.9778008,24.908634 34.0710484,24.3893169 L34.0710484,22 L36.5075129,22 L37.9985784,38.958825 C38.0129987,39.2285035 37.9172475,39.493029 37.7326669,39.6917092 Z M27.4945386,51.9999453 C33.9968306,52.013702 40.234881,49.4303122 44.8244307,44.8241172 C53.0881422,36.5603651 54.364068,23.6095974 47.8715203,13.8916495 C41.3795457,4.17370174 28.9269459,0.395200353 18.1291519,4.86612128 C7.33078457,9.33704222 1.19476244,20.8129791 3.47205489,32.2757325 C5.7499205,43.738486 15.8077235,51.9965062 27.4945386,51.9999453 Z" id="Combined-Shape"></path>
                </g>
            </g>
        </g>
    </g>
</svg>
