<?xml version="1.0" encoding="UTF-8"?>
<svg width="62px" height="61px" viewBox="0 0 62 61" version="1.1" xmlns="http://www.w3.org/2000/svg" xmlns:xlink="http://www.w3.org/1999/xlink">
    <!-- Generator: sketchtool 50.2 (55047) - http://www.bohemiancoding.com/sketch -->
    <title>A278F172-CE32-4756-8B8B-9FDF3771F049</title>
    <desc>Created with sketchtool.</desc>
    <defs></defs>
    <g id="Pink-Design-For-Dev" stroke="none" stroke-width="1" fill="none" fill-rule="evenodd">
        <g id="Homepage" transform="translate(-23.000000, -685.000000)" fill="#FFFFFF" fill-rule="nonzero">
            <g id="Group-5" transform="translate(7.000000, 672.000000)">
                <g id="store-2" transform="translate(16.000000, 13.000000)">
                    <path d="M56.260728,51.8756663 C57.4907548,50.0137484 58.209245,47.7897102 58.209245,45.4009106 C58.209245,39.7049393 54.1372587,34.936861 48.7332308,33.8166119 L48.7332308,27.3896224 C51.6453662,25.5330298 53.5844614,22.2975077 53.6050918,18.6169198 C53.6054167,18.5998143 53.6063914,18.5827088 53.6063914,18.5656033 C53.6063914,18.5630213 53.6065538,18.5606007 53.6065538,18.5580188 C53.6065538,18.542527 53.6044421,18.5275193 53.6041172,18.5120276 C53.6028176,18.4495763 53.6007058,18.3869637 53.594533,18.3240284 C53.5907968,18.2841693 53.5836492,18.2452785 53.5776388,18.2059036 C53.5719532,18.1673355 53.5677297,18.1287675 53.5599324,18.0903608 C53.5475866,18.0275868 53.5313422,17.9661038 53.5142856,17.9054277 C53.5102245,17.8910655 53.5079503,17.8767033 53.5037267,17.8625025 L53.5003154,17.8512065 C53.4980412,17.8442674 53.4960918,17.8370057 53.4938176,17.8300666 L48.6304036,1.7249125 C48.3212725,0.701164264 47.372599,0 46.2965692,0 L7.30998461,0 C6.23395488,0 5.28528132,0.701164264 4.97615019,1.7249125 L0.112573763,17.8297439 C0.110299546,17.8366829 0.108350216,17.8439447 0.106075999,17.8508837 L0.102664673,17.8621798 C0.0984411261,17.8763806 0.0961669087,17.8907428 0.091943362,17.9051049 C0.0748867313,17.9659424 0.058642321,18.0274254 0.0462965692,18.090038 C0.0384992523,18.1284447 0.0342757056,18.1670128 0.028590162,18.2055808 C0.0227421744,18.2449558 0.0155946338,18.2838466 0.0118584195,18.3237056 C0.00568554359,18.386641 0.00357377026,18.4492536 0.00227421744,18.5117048 C0.00211177333,18.5271966 0,18.5423656 0,18.5578574 C0,18.5604394 0.000162444103,18.5628599 0.000162444103,18.5654419 C0.000162444103,18.5825474 0.00113710872,18.5996529 0.00146199692,18.6167584 C0.0220923979,22.2975077 1.96118765,25.5328684 4.87332308,27.389461 L4.87332308,50.9892462 C4.87332308,52.3260575 5.96429767,53.4098363 7.30998461,53.4098363 L37.5361212,53.4098363 C39.7146591,55.7594224 42.8348854,57.2348528 46.2965692,57.2348528 C48.7013917,57.2348528 50.9403588,56.5209401 52.8148013,55.2987035 L57.8404969,60.2910898 C58.3164581,60.7639118 58.9399186,61 59.5635415,61 C60.1871644,61 60.8109498,60.763589 61.2864237,60.2910898 C62.2378588,59.3457687 62.2378588,57.8132125 61.2864237,56.8678913 L56.260728,51.8756663 Z M34.5554476,44.8751479 C34.5554476,45.9575683 34.7092571,47.0046508 34.9909714,48 L10,48 L10,28.7099958 C10.2674667,28.7300524 10.5367143,28.7435826 10.8095238,28.7435826 C14.061381,28.7435826 16.9727524,27.2854988 18.9047619,25 C20.8367714,27.2853396 23.7481429,28.7435826 27,28.7435826 C30.2518571,28.7435826 33.1632286,27.2854988 35.0952381,25 C37.0272476,27.2853396 39.938619,28.7435826 43.1904762,28.7435826 C43.4632857,28.7435826 43.7325333,28.7300524 44,28.7099958 L44,33.4482909 C38.6139143,34.5533147 34.5554476,39.2565904 34.5554476,44.8751479 Z M46,52 C42.1400978,52 39,48.8599022 39,45 C39,41.1400978 42.1400978,38 46,38 C49.8599022,38 53,41.1402594 53,45 C53,48.8597406 49.8599022,52 46,52 Z" id="XMLID_15_"></path>
                </g>
            </g>
        </g>
    </g>
</svg>
