<?xml version="1.0" encoding="UTF-8"?>
<svg width="62px" height="62px" viewBox="0 0 62 62" version="1.1" xmlns="http://www.w3.org/2000/svg" xmlns:xlink="http://www.w3.org/1999/xlink">
    <!-- Generator: sketchtool 50.2 (55047) - http://www.bohemiancoding.com/sketch -->
    <title>A278F172-CE32-4756-8B8B-9FDF3771F049</title>
    <desc>Created with sketchtool.</desc>
    <defs></defs>
    <g id="Pink-Design-For-Dev" stroke="none" stroke-width="1" fill="none" fill-rule="evenodd">
        <g id="Homepage" transform="translate(-23.000000, -360.000000)" fill="#FFFFFF">
            <g id="Group-3" transform="translate(7.000000, 342.000000)">
                <g id="star-2" transform="translate(16.000000, 18.000000)">
                    <path d="M31,62 C13.8791728,62 0,48.1208272 0,31 C0,13.8791728 13.8791728,0 31,0 C48.1208272,0 62,13.8791728 62,31 C62,48.1208272 48.1208272,62 31,62 Z M17.6870765,51.998133 C17.8094556,51.998133 17.9326043,51.9688657 18.0449776,51.910331 L30.4999349,45.359071 L42.9533528,51.910331 C43.2127348,52.0481955 43.5275338,52.0258599 43.7645952,51.8517963 C44.0008869,51.6792732 44.1194175,51.3873701 44.070158,51.0985478 L41.6918477,37.2219841 L51.7677249,27.3935538 C51.9778475,27.1894527 52.0525064,26.8829159 51.9624539,26.6048763 C51.870862,26.3252964 51.6307219,26.1227356 51.3405527,26.080375 L37.4162768,24.0555382 L31.1895679,11.4297676 C31.0610314,11.1663616 30.7931828,11 30.4999349,11 C30.2074566,11 29.939608,11.1663616 29.8103018,11.4297676 L23.5828232,24.0555382 L9.65931701,26.080375 C9.36914775,26.1227356 9.128238,26.3260665 9.03741579,26.6048763 C8.94736327,26.8829159 9.02279188,27.1886825 9.23214476,27.3935538 L19.308022,37.2204437 L16.928942,51.0977776 C16.8789128,51.3865999 16.9974435,51.678503 17.2345048,51.8510262 C17.3684291,51.9488406 17.5277528,51.998133 17.6870765,51.998133 Z M11,27.112136 L24.0642526,25.2217399 C24.3207383,25.1849038 24.5418196,25.0242358 24.6566875,24.7930307 L30.5,13 L36.3433125,24.7922469 C36.4581804,25.0234521 36.6792617,25.1841201 36.9357474,25.2209562 L50,27.112136 L40.5462175,36.2921565 C40.3613274,36.4724182 40.2763567,36.7318382 40.3204156,36.985772 L42.5516845,49.9473684 L30.866633,43.8278773 C30.6361106,43.7071803 30.3631027,43.7071803 30.1341537,43.8278773 L18.4475287,49.9473684 L20.6795844,36.985772 C20.7236433,36.7318382 20.6386726,36.4716344 20.4537825,36.2921565 L11,27.112136 Z" id="Combined-Shape"></path>
                </g>
            </g>
        </g>
    </g>
</svg>