<?xml version="1.0" encoding="UTF-8"?>
<svg width="62px" height="39px" viewBox="0 0 62 39" version="1.1" xmlns="http://www.w3.org/2000/svg" xmlns:xlink="http://www.w3.org/1999/xlink">
    <!-- Generator: sketchtool 50.2 (55047) - http://www.bohemiancoding.com/sketch -->
    <title>A278F172-CE32-4756-8B8B-9FDF3771F049</title>
    <desc>Created with sketchtool.</desc>
    <defs></defs>
   <g id="Pink-Design-For-Dev" stroke="none" stroke-width="1" fill="none" fill-rule="evenodd">
        <g id="Homepage" transform="translate(-23.000000, -480.000000)" fill="#FFFFFF" fill-rule="nonzero">
            <g id="Group" transform="translate(54.000000, 499.500000) scale(-1, 1) rotate(-180.000000) translate(-54.000000, -499.500000) translate(23.000000, 480.000000)">
                <path d="M17.6421085,38.7849082 C20.351481,38.3629653 23.323822,37.4394677 25.7622573,36.253251 C26.1527257,36.0701437 26.5192879,35.91092 26.5671003,35.91092 C26.6149128,35.91092 26.9974124,36.0701437 27.4038183,36.2771345 C28.5114735,36.810534 30.5753779,37.6146138 31.6989706,37.9330612 C34.288812,38.6893739 35.9224042,38.9361707 38.5999018,38.991899 C41.9866174,39.0635497 44.5764588,38.6654904 47.8277058,37.5748079 C50.9036405,36.5398537 52.1627018,35.7596575 52.7683262,34.5256736 C53.1827009,33.6817879 53.2464508,32.5114935 52.9117636,31.8666375 C52.7603575,31.5641124 51.8041084,30.2584779 51.7323897,30.2584779 C51.7164522,30.2584779 51.628796,30.2982838 51.5411399,30.3380898 C51.4056712,30.4177016 51.3897338,30.5132358 51.3897338,31.2854709 C51.3897338,32.6468337 51.0948903,33.3713016 50.2103598,34.1594591 C49.708329,34.6132467 49.0309859,34.9635388 47.6842684,35.4730548 C44.7198961,36.6035432 41.9706799,37.1210203 38.9983389,37.1210203 C35.7550606,37.1210203 32.9181882,36.5318925 29.7545974,35.1864521 C28.3202237,34.5734407 27.8819429,34.3346051 27.6747555,34.0241189 L27.5074119,33.7773221 L27.4595995,23.5551592 C27.3799121,8.95434401 27.3878808,3.04714396 27.4835057,2.69685178 C27.6110056,2.25898654 27.7703805,2.25102536 28.6628796,2.66500703 C31.1650648,3.80345664 33.388344,4.48015745 36.0100604,4.87821675 C37.3328717,5.08520759 40.4088063,5.12501352 41.7475551,4.95782861 C43.6520846,4.71899303 45.5725516,4.23336068 47.5248936,3.50889275 C49.2939544,2.84811431 50.1625474,2.87199787 50.7841093,3.60442699 C51.3578588,4.27316661 51.3339526,3.9945251 51.3897338,10.5943483 C51.445515,17.3772789 51.3737963,16.7165004 52.2264517,18.1017468 C52.4814515,18.4998061 52.6966076,18.8421371 52.7045763,18.8580595 C52.712545,18.8660206 52.8161387,18.8341759 52.9356698,18.7864088 L53.1428571,18.6908746 L53.1269197,10.6023095 L53.1030134,2.5137445 L52.8958261,2.07587926 C52.4575453,1.15238168 51.8519208,0.722477634 50.8717655,0.658788146 C50.3856722,0.626943402 50.2103598,0.658788146 49.6366104,0.865778983 C49.2620795,0.99315796 48.441299,1.28772184 47.8117683,1.51063505 C41.3650555,3.81141782 34.8227177,3.45316445 27.9855365,0.435874936 C26.670694,-0.145291645 26.4555379,-0.145291645 25.1406954,0.435874936 C21.188199,2.18733587 17.6978897,2.9675321 13.8569557,2.97549329 C10.4303964,2.98345447 7.68118017,2.45005501 4.18290213,1.10461456 C2.97165324,0.642865774 2.34212257,0.547331541 1.6568107,0.754322379 C1.05118626,0.921507286 0.557124213,1.37529489 0.262280734,2.01218977 L0.0311871962,2.5137445 L0.00728096816,17.8310665 C-0.00865651719,34.5734407 -0.0405314879,33.5384865 0.437593073,34.5177124 C0.716499066,35.0829566 1.30618602,35.7357739 1.8799355,36.1179108 C3.20274678,36.9936413 6.97196207,38.2355863 9.71320955,38.6893739 C11.3786768,38.9680154 11.9763325,39.0078214 14.2952366,38.9759766 C16.0802349,38.9600542 16.7496093,38.9202483 17.6421085,38.7849082 Z M59.6753306,32.2003102 C60.8501339,30.9467557 61.8626288,29.8101996 61.9244606,29.6764871 C62.0481241,29.4257763 62.0481241,29.4257763 61.7080494,29.1249232 C61.5225542,28.9661396 61.074274,28.5315741 60.7110124,28.1555077 C60.3477509,27.7794414 59.9381155,27.4200891 59.8067231,27.3365188 C59.4743774,27.1526641 59.1033869,27.1693782 58.7787702,27.3783039 C58.6319198,27.4785883 57.6967145,28.4312897 56.7151355,29.4926325 C55.0611361,31.2726799 54.9142857,31.4565345 54.9142857,31.7239595 C54.9142857,31.9830274 55.0224913,32.1250969 56.0195283,33.1947967 C57.0629391,34.3062817 57.2175185,34.4483512 57.4416586,34.4650653 C57.4957613,34.4734223 58.5005273,33.4538647 59.6753306,32.2003102 Z M55.4870484,27.8096324 C57.539727,25.713314 57.5714286,25.6809384 57.5714286,25.3490888 L57.5714286,25.0172392 L50.3593146,17.6760777 C45.5644476,12.7954598 43.0441704,10.2944467 42.8618862,10.2135078 C42.4497654,10.0354421 40.500117,9.91403373 39.6520992,10.0111604 C38.360259,10.1568505 38.2572288,10.2863528 38.1383478,12.0589155 C38.0590938,13.1192156 38.0670192,13.3863141 38.1779748,13.9286049 C38.3285574,14.6894309 38.5821702,15.2640974 38.994291,15.8063883 C39.1607244,16.0330173 42.3388098,19.2948564 46.047897,23.0747047 C52.6576806,29.8007303 52.7924124,29.9302326 53.0935776,29.9302326 C53.3947428,29.9302326 53.4819222,29.8492936 55.4870484,27.8096324 Z" id="Shape"></path>
            </g>
        </g>
    </g>
</svg>
