<?xml version="1.0" encoding="UTF-8"?>
<svg width="28px" height="21px" viewBox="0 0 28 21" version="1.1" xmlns="http://www.w3.org/2000/svg" xmlns:xlink="http://www.w3.org/1999/xlink">
    <!-- Generator: sketchtool 50.2 (55047) - http://www.bohemiancoding.com/sketch -->
    <title>2D8DA4E3-20E6-4F79-9F27-6AE8951FB11B</title>
    <desc>Created with sketchtool.</desc>
    <defs></defs>
    <g id="Pink-Design-For-Dev" stroke="none" stroke-width="1" fill="none" fill-rule="evenodd">
        <g id="Login-Copy-2" transform="translate(-215.000000, -607.000000)" fill="#F8F8F8" fill-rule="nonzero">
            <g id="Group-11" transform="translate(117.000000, 589.000000)">
                <g id="Group-7" transform="translate(83.000000, 0.000000)">
                    <g id="gmail">
                        <path d="M40.375,18 L39.5,18 L18.5,18 L17.625,18 C16.176,18 15,19.176 15,20.625 L15,21.5 L15,35.5 L15,36.375 C15,37.824 16.176,39 17.625,39 L18.5,39 L39.5,39 L40.375,39 C41.824,39 43,37.824 43,36.375 L43,35.5 L43,21.5 L43,20.625 C43,19.176 41.824,18 40.375,18 Z M37.2845,19.75 L29,26.2915 L20.7155,19.75 L37.2845,19.75 Z M39.5,37.25 L18.5,37.25 L18.5,22.6305 L29,30.70675 L39.5,22.62875 L39.5,37.25 Z" id="Shape"></path>
                    </g>
                </g>
            </g>
        </g>
    </g>
</svg>