<?xml version="1.0" encoding="UTF-8"?>
<svg width="62px" height="41px" viewBox="0 0 62 41" version="1.1" xmlns="http://www.w3.org/2000/svg" xmlns:xlink="http://www.w3.org/1999/xlink">
    <!-- Generator: sketchtool 50.2 (55047) - http://www.bohemiancoding.com/sketch -->
    <title>A278F172-CE32-4756-8B8B-9FDF3771F049</title>
    <desc>Created with sketchtool.</desc>
    <defs></defs>
    <g id="Pink-Design-For-Dev" stroke="none" stroke-width="1" fill="none" fill-rule="evenodd">
        <g id="Homepage" transform="translate(-23.000000, -587.000000)" fill="#FFFFFF" fill-rule="nonzero">
            <g id="Group-4" transform="translate(7.000000, 559.000000)">
                <g id="coupon" transform="translate(16.000000, 28.000000)">
                    <path d="M60.1835938,0 L18.3148242,0 L18.3148242,5.54829545 C18.3148242,6.57053807 17.5024062,7.39772727 16.498418,7.39772727 C15.4944297,7.39772727 14.6820117,6.57053807 14.6820117,5.54829545 L14.6820117,0 L1.81640625,0 C0.812417969,0 0,0.827189205 0,1.84943182 L0,12.9460227 C0,13.9682653 0.812417969,14.7954545 1.81640625,14.7954545 C4.82122656,14.7954545 7.265625,17.2842966 7.265625,20.34375 C7.265625,23.4032034 4.82122656,25.8920455 1.81640625,25.8920455 C0.812417969,25.8920455 0,26.7192347 0,27.7414773 L0,38.8380682 C0,39.8603108 0.812417969,40.6875 1.81640625,40.6875 L14.53125,40.6875 L14.53125,35.1392045 C14.53125,34.1169619 15.343668,33.2897727 16.3476562,33.2897727 C17.3516445,33.2897727 18.1640625,34.1169619 18.1640625,35.1392045 L18.1640625,40.6875 L60.1835938,40.6875 C61.187582,40.6875 62,39.8603108 62,38.8380682 L62,1.84943182 C62,0.827189205 61.187582,0 60.1835938,0 Z M18.40625,28.09375 C18.40625,29.1646708 17.5396708,30.03125 16.46875,30.03125 C15.3978292,30.03125 14.53125,29.1646708 14.53125,28.09375 L14.53125,24.21875 C14.53125,23.1478292 15.3978292,22.28125 16.46875,22.28125 C17.5396708,22.28125 18.40625,23.1478292 18.40625,24.21875 L18.40625,28.09375 Z M18.40625,16.46875 C18.40625,17.5396708 17.5396708,18.40625 16.46875,18.40625 C15.3978292,18.40625 14.53125,17.5396708 14.53125,16.46875 L14.53125,12.59375 C14.53125,11.5228292 15.3978292,10.65625 16.46875,10.65625 C17.5396708,10.65625 18.40625,11.5228292 18.40625,12.59375 L18.40625,16.46875 Z M29.0625,13.078125 C29.0625,10.1400785 31.4525785,7.75 34.390625,7.75 C37.3286715,7.75 39.71875,10.1400785 39.71875,13.078125 C39.71875,16.0161715 37.3286715,18.40625 34.390625,18.40625 C31.4525785,18.40625 29.0625,16.0161715 29.0625,13.078125 Z M33.757697,33.5925595 C32.9111894,33.0196062 32.6828447,31.8611194 33.2472649,31.0016893 L47.9712695,8.58177454 C48.5338492,7.72246903 49.6752049,7.49254035 50.523553,8.0636254 C51.3700606,8.63657878 51.5984053,9.7950656 51.0339851,10.6544957 L36.3099805,33.0744104 C35.7547628,33.9210113 34.6177016,34.1712425 33.757697,33.5925595 Z M48.921875,32.9375 C45.9838285,32.9375 43.59375,30.5474215 43.59375,27.609375 C43.59375,24.6713285 45.9838285,22.28125 48.921875,22.28125 C51.8599215,22.28125 54.25,24.6713285 54.25,27.609375 C54.25,30.5474215 51.8599215,32.9375 48.921875,32.9375 Z" id="Shape"></path>
                </g>
            </g>
        </g>
    </g>
</svg>
